<?xml version="1.0" encoding="utf-8"?>
<svg viewBox="18.599 80.364 445.573 222.568" xmlns="http://www.w3.org/2000/svg">
  <path d="M 90 3833 C 51 3821 27 3803 14 3778 C 2 3755 0 3567 0 2561 C 0 1683 3 1364 12 1346 C 18 1332 35 1312 49 1303 C 74 1286 159 1285 1524 1282 C 2380 1281 2986 1283 3006 1289 C 3024 1294 3501 1565 4065 1890 C 5126 2503 5120 2499 5120 2560 C 5120 2621 5126 2617 4065 3230 C 3501 3555 3025 3826 3007 3831 C 2974 3840 118 3843 90 3833 Z" style="" transform="matrix(0.087026, 0, 0, -0.087026, 18.59948, 414.477814)"/>
</svg>